<?xml version="1.0" encoding="UTF-8" standalone="no"?>
<!-- Created with Inkscape (http://www.inkscape.org/) -->

<svg
   version="1.0"
   id="svg2"
   sodipodi:version="0.32"
   inkscape:version="1.3 (0e150ed6c4, 2023-07-21)"
   sodipodi:docname="pytwins.svg"
   width="2000"
   height="782.875"
   inkscape:export-filename="pytwins_banner.png"
   inkscape:export-xdpi="122.4"
   inkscape:export-ydpi="122.4"
   xmlns:inkscape="http://www.inkscape.org/namespaces/inkscape"
   xmlns:sodipodi="http://sodipodi.sourceforge.net/DTD/sodipodi-0.dtd"
   xmlns:xlink="http://www.w3.org/1999/xlink"
   xmlns="http://www.w3.org/2000/svg"
   xmlns:svg="http://www.w3.org/2000/svg"
   xmlns:rdf="http://www.w3.org/1999/02/22-rdf-syntax-ns#"
   xmlns:cc="http://creativecommons.org/ns#"
   xmlns:dc="http://purl.org/dc/elements/1.1/">
  <metadata
     id="metadata371">
    <rdf:RDF>
      <cc:Work
         rdf:about="">
        <dc:format>image/svg+xml</dc:format>
        <dc:type
           rdf:resource="http://purl.org/dc/dcmitype/StillImage" />
      </cc:Work>
    </rdf:RDF>
  </metadata>
  <sodipodi:namedview
     inkscape:window-height="882"
     inkscape:window-width="1723"
     inkscape:pageshadow="2"
     inkscape:pageopacity="0.0"
     guidetolerance="10.0"
     gridtolerance="10.0"
     objecttolerance="10.0"
     borderopacity="1.0"
     bordercolor="#666666"
     pagecolor="#ffffff"
     id="base"
     inkscape:zoom="0.98734244"
     inkscape:cx="1015.8583"
     inkscape:cy="390.94845"
     inkscape:window-x="62"
     inkscape:window-y="455"
     inkscape:current-layer="g4"
     width="210mm"
     height="40mm"
     units="mm"
     inkscape:showpageshadow="0"
     inkscape:pagecheckerboard="1"
     inkscape:deskcolor="#d1d1d1"
     inkscape:document-units="pt"
     inkscape:window-maximized="0" />
  <defs
     id="defs4">
    <linearGradient
       id="linearGradient2795">
      <stop
         style="stop-color:#b8b8b8;stop-opacity:0.49803922;"
         offset="0"
         id="stop2797" />
      <stop
         style="stop-color:#7f7f7f;stop-opacity:0;"
         offset="1"
         id="stop2799" />
    </linearGradient>
    <linearGradient
       id="linearGradient2787">
      <stop
         style="stop-color:#7f7f7f;stop-opacity:0.5;"
         offset="0"
         id="stop2789" />
      <stop
         style="stop-color:#7f7f7f;stop-opacity:0;"
         offset="1"
         id="stop2791" />
    </linearGradient>
    <linearGradient
       id="linearGradient3676">
      <stop
         style="stop-color:#b2b2b2;stop-opacity:0.5;"
         offset="0"
         id="stop3678" />
      <stop
         style="stop-color:#b3b3b3;stop-opacity:0;"
         offset="1"
         id="stop3680" />
    </linearGradient>
    <linearGradient
       id="linearGradient3236">
      <stop
         style="stop-color:#f4f4f4;stop-opacity:1"
         offset="0"
         id="stop3244" />
      <stop
         style="stop-color:white;stop-opacity:1"
         offset="1"
         id="stop3240" />
    </linearGradient>
    <linearGradient
       id="linearGradient4671">
      <stop
         style="stop-color:#ffd43b;stop-opacity:1;"
         offset="0"
         id="stop4673" />
      <stop
         style="stop-color:#ffe873;stop-opacity:1"
         offset="1"
         id="stop4675" />
    </linearGradient>
    <linearGradient
       id="linearGradient4689">
      <stop
         style="stop-color:#5a9fd4;stop-opacity:1;"
         offset="0"
         id="stop4691" />
      <stop
         style="stop-color:#306998;stop-opacity:1;"
         offset="1"
         id="stop4693" />
    </linearGradient>
    <linearGradient
       x1="224.23996"
       y1="144.75717"
       x2="-65.308502"
       y2="144.75717"
       id="linearGradient2987"
       xlink:href="#linearGradient4671"
       gradientUnits="userSpaceOnUse"
       gradientTransform="translate(100.2702,99.61116)" />
    <linearGradient
       x1="172.94208"
       y1="77.475983"
       x2="26.670298"
       y2="76.313133"
       id="linearGradient2990"
       xlink:href="#linearGradient4689"
       gradientUnits="userSpaceOnUse"
       gradientTransform="translate(100.2702,99.61116)" />
    <linearGradient
       inkscape:collect="always"
       xlink:href="#linearGradient4689"
       id="linearGradient2587"
       gradientUnits="userSpaceOnUse"
       gradientTransform="translate(100.2702,99.61116)"
       x1="172.94208"
       y1="77.475983"
       x2="26.670298"
       y2="76.313133" />
    <linearGradient
       inkscape:collect="always"
       xlink:href="#linearGradient4671"
       id="linearGradient2589"
       gradientUnits="userSpaceOnUse"
       gradientTransform="translate(100.2702,99.61116)"
       x1="224.23996"
       y1="144.75717"
       x2="-65.308502"
       y2="144.75717" />
    <linearGradient
       inkscape:collect="always"
       xlink:href="#linearGradient4689"
       id="linearGradient2248"
       gradientUnits="userSpaceOnUse"
       gradientTransform="translate(100.2702,99.61116)"
       x1="172.94208"
       y1="77.475983"
       x2="26.670298"
       y2="76.313133" />
    <linearGradient
       inkscape:collect="always"
       xlink:href="#linearGradient4671"
       id="linearGradient2250"
       gradientUnits="userSpaceOnUse"
       gradientTransform="translate(100.2702,99.61116)"
       x1="224.23996"
       y1="144.75717"
       x2="-65.308502"
       y2="144.75717" />
    <linearGradient
       inkscape:collect="always"
       xlink:href="#linearGradient4671"
       id="linearGradient2255"
       gradientUnits="userSpaceOnUse"
       gradientTransform="matrix(0.562541,0,0,0.567972,-11.5974,-7.60954)"
       x1="224.23996"
       y1="144.75717"
       x2="-65.308502"
       y2="144.75717" />
    <linearGradient
       inkscape:collect="always"
       xlink:href="#linearGradient4689"
       id="linearGradient2258"
       gradientUnits="userSpaceOnUse"
       gradientTransform="matrix(0.562541,0,0,0.567972,-11.5974,-7.60954)"
       x1="172.94208"
       y1="76.176224"
       x2="26.670298"
       y2="76.313133" />
    <radialGradient
       inkscape:collect="always"
       xlink:href="#linearGradient2795"
       id="radialGradient2801"
       cx="61.518883"
       cy="132.28575"
       fx="61.518883"
       fy="132.28575"
       r="29.036913"
       gradientTransform="matrix(1,0,0,0.177966,0,108.7434)"
       gradientUnits="userSpaceOnUse" />
    <linearGradient
       inkscape:collect="always"
       xlink:href="#linearGradient4671"
       id="linearGradient1475"
       gradientUnits="userSpaceOnUse"
       gradientTransform="matrix(0.37062205,0,0,-0.44297948,315.57287,119.09077)"
       x1="150.96111"
       y1="192.35176"
       x2="112.03144"
       y2="137.27299" />
    <linearGradient
       inkscape:collect="always"
       xlink:href="#linearGradient4689"
       id="linearGradient1478"
       gradientUnits="userSpaceOnUse"
       gradientTransform="matrix(0.37062205,0,0,-0.44297948,317.65363,117.03236)"
       x1="26.648937"
       y1="20.603781"
       x2="135.66525"
       y2="114.39767" />
  </defs>
  <g
     id="g4"
     transform="matrix(3.7309527,0,0,3.3648106,98.233503,162.35927)"
     style="stroke:#4d4d4d">
    <path
       style="fill:url(#linearGradient1478);fill-opacity:1;stroke:#4d4d4d;stroke-width:0.716831"
       d="m 363.71277,107.90459 c -3.01988,-0.0166 -5.90378,-0.3215 -8.44133,-0.85306 -7.47529,-1.56337 -8.83251,-4.83565 -8.83251,-10.870284 v -7.969925 h 17.66503 v -2.656643 h -17.66503 -6.62954 c -5.13395,0 -9.62938,-3.652972 -11.03549,-10.602196 -1.62194,-7.965413 -1.69388,-12.935966 0,-21.253142 1.25568,-6.190984 4.25445,-10.602197 9.3884,-10.602199 h 6.07364 v 9.554166 c 0,6.902324 5.0448,12.990738 11.0355,12.990738 h 17.64444 c 4.91159,0 8.83252,4.787354 8.83252,10.626572 v 19.912629 c 0,5.667234 -4.03865,9.924454 -8.83252,10.870284 -3.03459,0.598 -6.18324,0.86967 -9.20311,0.85306 z m -9.55311,-6.41007 c 1.82467,0 3.31476,-1.792777 3.31476,-3.997135 0,-2.196549 -1.49009,-3.972779 -3.31476,-3.972779 -1.83122,0 -3.31477,1.77623 -3.31477,3.972779 -1e-5,2.204358 1.48355,3.997135 3.31477,3.997135 z"
       id="path1948" />
    <path
       style="fill:url(#linearGradient1475);fill-opacity:1;stroke:#4d4d4d;stroke-width:0.716831"
       d="m 381.87062,87.613087 v -9.286061 c 0,-7.199357 -5.15598,-13.258842 -11.0355,-13.258842 h -17.64444 c -4.83311,0 -8.83251,-4.896787 -8.83251,-10.62657 V 34.52898 c 0,-5.66725 4.1629,-9.000663 8.83251,-10.626571 5.59176,-1.946406 10.95395,-2.298171 17.64444,0 4.44724,1.524291 8.83252,4.591934 8.83252,10.626571 v 7.969927 H 362.0232 v 2.656643 h 17.64444 8.83251 c 5.13395,0 7.04707,4.239248 8.83251,10.602199 1.8443,6.55056 1.76583,12.849984 0,21.253142 -1.26877,6.050274 -3.69203,10.602196 -8.83251,10.602196 z m -9.92371,-50.427466 c 1.83121,-2e-6 3.31476,-1.77623 3.31476,-3.972776 0,-2.20436 -1.48355,-3.99715 -3.31476,-3.99715 -1.82468,0 -3.31477,1.79279 -3.31477,3.99715 0,2.196546 1.49008,3.972776 3.31477,3.972776 z"
       id="path1950" />
    <path
       d="m 218.82973,37.09443 c -7.26522,33.831804 -9.61108,31.804967 -9.15033,52.77329 h -12.38943 c -3.68812,-13.953783 -7.99801,-27.768245 -11.22632,-41.827327 -1.31663,2.972904 -1.89631,6.93812 -3.09303,10.248399 -3.09022,10.540906 -6.31764,21.040969 -9.4178,31.578928 H 163.45948 C 158.86697,53.149972 157.7207,59.467023 150.16111,37.09443 l 8.48814,-4 c 4.05058,15.864512 7.5371,31.926524 11.33689,47.8124 1.22267,-3.618466 1.89073,-7.531775 3.15599,-11.199675 3.17897,-10.87608 4.40123,-21.739438 7.58971,-32.612725 h 11.40244 c 0,0 10.32363,56.124523 10.01924,41.671112 3.69552,-15.192033 6.84774,-30.512177 10.68157,-45.671112 z m 11.52178,-7.399467 c -5.49036,0.389857 -7.21153,-8.571719 -2.22262,-10.520717 5.47565,-2.806844 10.63047,5.951778 5.46186,9.392846 -0.90637,0.730869 -2.06531,1.180665 -3.23924,1.127871 z m 3.94797,60.172757 h -12.09334 c 8.92158,-24.049447 5.4954,-27.61668 4,-52.77329 l 8.09334,-4 z"
       id="text1"
       style="font-size:103.283px;font-family:'Segoe UI';-inkscape-font-specification:'Segoe UI';direction:rtl;text-orientation:upright;fill:#646464;fill-opacity:1;stroke:#4d4d4d;stroke-width:1.12965"
       aria-label="wi"
       sodipodi:nodetypes="ccccccccccccccccccccccccc"
       transform="matrix(0.89993116,0,0,0.69176228,67.44827,23.980165)" />
    <path
       id="path1"
       style="fill:#646464;fill-opacity:1;stroke:#4d4d4d"
       d="m 286.20583,88.266003 h -8.90884 v -36.33715 c 0,-3.98656 -1.19889,-7.09588 -3.59667,-9.33772 -2.39779,-2.23208 -5.59483,-3.31401 -9.58139,-3.22628 -4.23023,0.07798 -8.25579,1.46206 -12.07664,4.14251 v 44.75864 h -8.90884 v -45.86006 c 5.12697,-3.73313 9.84456,-6.16991 14.15276,-7.31032 4.06455,-1.06243 7.65148,-1.58877 10.74131,-1.58877 2.11512,0 4.10352,0.20469 5.97496,0.61406 3.49921,0.80901 6.34535,2.31006 8.53845,4.51291 2.44651,2.43677 3.6649,5.3609 3.6649,8.78212 z"
       transform="matrix(0.89993116,0,0,0.69176228,67.44827,23.980165)" />
    <path
       id="path2"
       style="fill:#646464;fill-opacity:1;stroke:#4d4d4d;stroke-width:0.654692"
       d="m 394.8702,41.739086 -40.89214,40.579409 41.65436,-0.141139 5.00763,7.518246 h -66.38812 l 43.7117,-40.677833 c 0,0 -30.79585,0.241573 -46.98431,0.241573 l -8.10767,-7.520256 z"
       sodipodi:nodetypes="ccccccccc" />
    <path
       id="path46"
       style="fill:#646464;fill-opacity:1;stroke:#4d4d4d"
       d="m 60.61344,61.929363 c 0,-14.56215 -4.15226,-22.03817 -12.45678,-22.44755 -3.30427,-0.15595 -6.53055,0.37039 -9.66912,1.58878 -2.505,0.89673 -4.19124,1.78372 -5.07823,2.68045 v 34.75812 c 5.31216,3.33351 10.02976,4.88329 14.14303,4.63962 8.70415,-0.57508 13.0611,-7.64172 13.0611,-21.21942 z m 10.24419,0.60432 c 0,7.39804 -1.73498,13.53871 -5.22444,18.422 -3.88909,5.5266 -9.27923,8.37275 -16.17042,8.52871 -5.1952,0.1657 -10.54635,-1.46207 -16.05346,-4.87355 v 31.590317 l -8.90884,-3.17755 V 42.903043 c 1.46206,-1.79346 3.34325,-3.3335 5.62407,-4.63961 5.30242,-3.08983 11.74524,-4.67861 19.32848,-4.75658 l 0.12671,0.12671 c 6.93018,-0.08773 12.27159,2.75843 16.02422,8.5287 3.4992,5.29267 5.25368,12.07665 5.25368,20.37142 z"
       transform="matrix(0.89993116,0,0,0.69176228,67.44827,23.980165)" />
    <path
       id="path48"
       style="fill:#646464;fill-opacity:1;stroke:#4d4d4d"
       d="m 119.30487,83.265743 c 0,9.92254 -0.9942,16.794237 -2.9826,20.615097 -1.99816,3.82086 -5.79952,6.8717 -11.41385,9.14277 -4.55189,1.79346 -9.47417,2.76817 -14.75709,2.93387 l -1.47181,-5.61432 c 5.37064,-0.73103 9.15252,-1.46207 11.34561,-2.1931 4.31796,-1.46206 7.28108,-3.70389 8.90884,-6.706 1.30611,-2.446517 1.94942,-7.115367 1.94942,-14.026057 v -2.3198 c -6.09193,2.76817 -12.47628,4.14251 -19.15303,4.14251 -4.38619,0 -8.25579,-1.37434 -11.58929,-4.14251 -3.74289,-3.01186 -5.61433,-6.83272 -5.61433,-11.46258 v -37.07793 l 8.90884,-3.05084 v 37.3216 c 0,3.98656 1.28662,7.0569 3.85985,9.21101 2.57323,2.1541 5.90674,3.18729 9.99077,3.10932 4.08403,-0.08773 8.46047,-1.66676 13.10983,-4.75658 v -43.54025 h 8.90884 z"
       transform="matrix(0.89993116,0,0,0.69176228,67.44827,23.980165)" />
    <path
       id="path50"
       style="fill:#646464;fill-opacity:1;stroke:#4d4d4d"
       d="m 148.08249,88.997033 c -1.06243,0.08772 -2.03714,0.12671 -2.93387,0.12671 -5.03925,0 -8.96733,-1.19889 -11.77449,-3.60642 -2.79742,-2.40753 -4.20099,-5.73129 -4.20099,-9.97127 v -35.08953 h -6.10168 v -5.60457 h 6.10168 v -14.88381 l 8.89909,-3.16781 v 18.05162 h 10.01026 v 5.60457 h -10.01026 v 34.84585 c 0,3.34325 0.89673,5.71179 2.6902,7.09588 1.54004,1.14041 3.98656,1.79347 7.32006,1.95917 z"
       transform="matrix(0.89993116,0,0,0.69176228,67.44827,23.980165)" />
  </g>
</svg>
